<svg xmlns="http://www.w3.org/2000/svg" viewBox="0 0 2045.94163 433.04883"><defs><style>.cls-1{fill:#e8ddcb;stroke:#e8ddcb;stroke-miterlimit:10;}</style></defs><g id="Réteg_2" data-name="Réteg 2"><g id="Réteg_1" data-name="Réteg 1"><path class="cls-1" d="M121.18144,5.03027H201.927l80.46875,297.89649L446.35038,5.03027H523.0955l6.44873,427.51856h-83.189L442.48613,176.793,301.71659,432.54883H233.72783l-72.24659-268.543L85.784,432.54883H.66044Z"/><path class="cls-1" d="M702.1414,4.50781h75.12793L895.44316,432.47363H809.0247l-25.14551-91.06347H595.70146l-53.958,91.06347H445.96464Zm59.84766,261.25977L724.06718,124.81349,640.53056,265.76758Z"/><path class="cls-1" d="M1021.595,388.9043H962.56279L948.555,431.58447H930.29423l51.48047-154h21.55957l51.9209,154h-19.14063Zm-53.34375-15.83985h48.28321l-22.66016-72.37988h-2.63965Z"/><path class="cls-1" d="M1133.57255,277.58447h114.40039v40.25977h-16.28027v-23.98h-31.90039V415.30469h24.20019v16.27978h-66.66015V415.30469h24.20019V293.86426h-31.67968v23.98h-16.28028Z"/><path class="cls-1" d="M1331.5706,277.58447H1445.971v40.25977h-16.28027v-23.98h-31.90039V415.30469h24.20019v16.27978h-66.66016V415.30469h24.2002V293.86426h-31.67969v23.98H1331.5706Z"/><path class="cls-1" d="M1533.969,277.58447h105.59961v16.27979h-43.78028V415.30469h43.78028v16.27978H1533.969V415.30469h43.55957V293.86426H1533.969Z"/><path class="cls-1" d="M1738.56669,277.58447h18.25977V415.30469h62.26074V377.02441h16.2793v54.56006h-96.79981Z"/><path class="cls-1" d="M2011.58525,388.9043H1952.553l-14.00781,42.68017h-18.26074l51.48046-154h21.55957l51.9209,154h-19.14062Zm-53.34375-15.83985h48.2832l-22.66016-72.37988h-2.63964Z"/><path class="cls-1" d="M1016.09208,54.83984l2.2002-20.90039h-1.10059l-10.55957,18.91993L984.19169,90.47949h-5.5L955.15263,52.63965l-10.12109-18.7002h-1.09961l2.64062,20.68067V157.13965H928.75224v-154h16.93945L982.2122,61.65918h.44043l35.19922-58.51953h16.5v154h-18.25977Z"/><path class="cls-1" d="M1124.10966,80.13965q0-38.2793,13.50293-58.96Q1151.11112.50342,1179.22.5q15.36621,0,26.01856,5.71973a45.65575,45.65575,0,0,1,17.23535,16.16992,72.84088,72.84088,0,0,1,9.43945,25.08008,171.149,171.149,0,0,1,2.85645,32.66992q0,38.2793-13.502,58.96-13.50439,20.68213-42.04785,20.67969-15.14941,0-25.68847-5.71973a45.82863,45.82863,0,0,1-17.126-16.16992,72.73044,72.73044,0,0,1-9.44238-25.08008A171.11059,171.11059,0,0,1,1124.10966,80.13965Zm19.14063,0a169.02476,169.02476,0,0,0,1.65332,24.20019,68.84378,68.84378,0,0,0,5.84668,20.12989,37.25213,37.25213,0,0,0,11.03515,13.86035Q1168.62187,143.501,1179.22,143.5q18.97559,0,27.69239-15.40039,8.71436-15.397,8.71777-47.96a169.72109,169.72109,0,0,0-1.65723-24.08985,68.94849,68.94849,0,0,0-5.84668-20.24023,36.38239,36.38239,0,0,0-11.25488-13.86035q-7.06347-5.16651-17.65137-5.16992-18.75879,0-27.36621,15.51074Q1143.24785,47.7998,1143.25029,80.13965Z"/><path class="cls-1" d="M1323.64775,140.63965l86.90039-121.21973h-86.90039V3.13965h107.80078v16.5l-87.34082,121.21973h87.34082v16.28027H1323.64775Z"/><path class="cls-1" d="M1575.98661,134.47949h2.41993l41.7998-131.33984h18.25977l-51.7002,154h-21.33984l-52.79981-154h20.01953Z"/><path class="cls-1" d="M1720.74443,3.13965H1826.344V19.41992h-43.78028V140.85938H1826.344v16.28027H1720.74443V140.85938H1764.304V19.41992h-43.55957Z"/><path class="cls-1" d="M1959.44267,85.85938h-16.94043v71.28027h-18.25977v-154h18.25977V71.7793h16.5l49.5-68.63965h21.12012l-54.33985,73.25976,61.16016,80.74024h-23.10059Z"/></g></g></svg>