<svg xmlns="http://www.w3.org/2000/svg" viewBox="0 0 1121 1121"><defs><style>.cls-1,.cls-2{fill:#fff;stroke:#fff;}.cls-2{stroke-miterlimit:10;}</style></defs><g id="Réteg_2" data-name="Réteg 2"><g id="Réteg_1" data-name="Réteg 1"><path class="cls-1" d="M564.5,688.5q25-41.28,51-83,16-25.69,32-51-2.67-113-5.35-225.89H565.41L401.46,626.51,321,328.61H240.24L119.72,756.13h85.12l75.7-268.54,72.25,268.54h68L561.54,500.38Q563,594.43,564.5,688.5Z"/><path class="cls-1" d="M821.2,328.09h75.13l118.17,428H928.08L902.94,665H714.76l-54,91.07H565Zm59.85,261.26-37.92-141-83.54,141Z"/><path class="cls-2" d="M1076.48,342.51A560.14,560.14,0,0,0,38,762.4q8.17-34.85,17.48-70.9,9.25-35.76,18.93-69.94A472.64,472.64,0,0,1,70.5,560.5c0-270.19,219.81-490,490-490,292.31,0,481.45,263.58,490,490,5.29,140.17-59.29,248.41-94,298l21,77a586.69,586.69,0,0,0,76.27-109.63,570.65,570.65,0,0,0,31.78-70.23,562,562,0,0,0-9.07-413.13Z"/><path class="cls-2" d="M560.5,1050.5c-132.15-4.62-224.85-61.78-259.6-84.31-107-69.36-161-159.34-183.4-202.69q-6.52,23-13,46-7,25-14,50a506.23,506.23,0,0,0,74,97c8.73,8.95,42,42.42,93.79,75.62a561,561,0,0,0,531,39.66c27-12.11,56.66-25,90.06-50.77,9.86-7.61,17.69-14.49,23.13-19.49l-19-64C838,973.23,719,1056,560.5,1050.5Z"/><rect class="cls-2" x="955.91" y="746.82" width="53.29" height="101.36" transform="translate(-175.35 286.94) rotate(-15.27)"/><path class="cls-2" d="M959.86,871.5,925.41,745.3l79.83-21.8,34.45,126.21ZM961.59,766l18.94,69.35,23-6.27-18.93-69.35Z"/><polygon class="cls-2" points="168.88 882.12 90.1 859.46 142.02 677.78 220.8 700.45 168.88 882.12"/></g></g></svg>