<svg xmlns="http://www.w3.org/2000/svg" viewBox="0 0 1121 1121"><defs><style>.cls-1,.cls-2{fill:#012431;stroke:#012431;}.cls-2{stroke-miterlimit:10;}</style></defs><g id="Réteg_2" data-name="Réteg 2"><g id="Réteg_1" data-name="Réteg 1"><path class="cls-1" d="M564.5,688.5q25.03766-41.282,51-83,15.99464-25.69547,32-51-2.67279-112.94362-5.3457-225.88721H565.40918l-163.9541,297.897-80.46875-297.897H240.24072l-120.521,427.51807h85.12353l75.69727-268.54248,72.24658,268.54248h67.98828L561.54492,500.37549Q563.0224,594.43777,564.5,688.5Z"/><path class="cls-1" d="M821.2002,328.08984h75.12792L1014.502,756.05566H928.084l-25.1455-91.06347H714.76074l-53.958,91.06347H565.02344Zm59.84765,261.25977L843.126,448.396,759.58984,589.34961Z"/><path class="cls-2" d="M1076.47852,342.51172A560.14094,560.14094,0,0,0,38.021,762.40472Q46.19124,727.55765,55.5,691.5q9.24774-35.75556,18.9339-69.93512A472.33211,472.33211,0,0,1,70.5,560.5c0-270.187,219.813-490,490-490,292.31262,0,481.4491,263.5766,490,490,5.29358,140.17065-59.2887,248.41412-94,298q10.5,38.5,21,77a587.17786,587.17786,0,0,0,76.27332-109.6347,570.99071,570.99071,0,0,0,31.78039-70.2276,561.99611,561.99611,0,0,0-9.07519-413.126Z"/><path class="cls-2" d="M560.5,1050.5c-132.14587-4.6178-224.84857-61.77551-259.59845-84.30554C193.91644,896.83081,139.93237,806.84644,117.5,763.5q-6.52808,22.9974-13,46-7.03007,24.9862-14,50a506.18573,506.18573,0,0,0,74.02,96.97949c8.734,8.95233,42.04126,42.41687,93.78821,75.62293a561.05109,561.05109,0,0,0,531.00427,39.66125c27.03052-12.11462,56.65845-25.00012,90.05811-50.77154,9.85925-7.60755,17.68689-14.48761,23.12939-19.49213q-9.50005-32-19-64C837.958,973.22675,719.04236,1056.04016,560.5,1050.5Z"/><rect class="cls-2" x="955.90681" y="746.82371" width="53.2859" height="101.35712" transform="translate(-175.35198 286.93645) rotate(-15.27044)"/><path class="cls-2" d="M959.8623,871.50293l-34.457-126.206,79.832-21.7959,34.457,126.20605Zm1.73243-105.54,18.93359,69.35059,22.97656-6.27246-18.93359-69.35059Z"/><polygon class="cls-2" points="168.88 882.124 90.1 859.458 142.02 677.779 220.8 700.445 168.88 882.124"/></g></g></svg>