<svg xmlns="http://www.w3.org/2000/svg" viewBox="0 0 1121 1121"><defs><style>.cls-1,.cls-2{fill:#012431;stroke:#031634;}.cls-2{stroke-miterlimit:10;}</style></defs><g id="Réteg_2" data-name="Réteg 2"><g id="Réteg_1" data-name="Réteg 1"><path class="cls-1" d="M556.5,688.5q-25.03766-41.282-51-83-15.99464-25.69547-32-51,2.67279-112.94362,5.3457-225.88721h76.74512l163.9541,297.897,80.46875-297.897h80.74561l120.521,427.51807H916.15674L840.45947,487.58838,768.21289,756.13086H700.22461L559.45508,500.37549Q557.9776,594.43777,556.5,688.5Z"/><path class="cls-1" d="M555.97656,756.05566H460.19727l-53.958-91.06347H218.06152L192.916,756.05566h-86.418L224.67188,328.08984H299.7998Zm-194.5664-166.706L277.874,448.396,239.95215,589.34961Z"/><path class="cls-2" d="M44.52148,342.51172A560.14094,560.14094,0,0,1,1082.979,762.40472Q1074.80876,727.55765,1065.5,691.5q-9.24774-35.75556-18.9339-69.93512A472.33211,472.33211,0,0,0,1050.5,560.5c0-270.187-219.813-490-490-490-292.31262,0-481.4491,263.5766-490,490-5.29358,140.17065,59.2887,248.41412,94,298q-10.5,38.5-21,77A587.17786,587.17786,0,0,1,67.22668,825.8653a570.9914,570.9914,0,0,1-31.78039-70.2276,561.99611,561.99611,0,0,1,9.07519-413.126Z"/><path class="cls-2" d="M560.5,1050.5c132.14587-4.6178,224.84857-61.77551,259.59845-84.30554C927.08356,896.83081,981.06763,806.84644,1003.5,763.5q6.52807,22.9974,13,46,7.03006,24.9862,14,50a506.18573,506.18573,0,0,1-74.02,96.97949c-8.73395,8.95233-42.04126,42.41687-93.78821,75.62293a561.05109,561.05109,0,0,1-531.00427,39.66125c-27.03052-12.11462-56.65845-25.00012-90.05811-50.77154-9.85925-7.60755-17.68689-14.48761-23.12939-19.49213q9.50006-32,19-64C283.042,973.22675,401.95764,1056.04016,560.5,1050.5Z"/><rect class="cls-2" x="111.80729" y="746.82371" width="53.2859" height="101.35712" transform="translate(61.96984 1603.31186) rotate(-164.72956)"/><path class="cls-2" d="M81.30566,849.707l34.457-126.206,79.832,21.79589-34.457,126.20606Zm55.123-90.0166L117.49512,829.041l22.97656,6.27246,18.93359-69.35059Z"/><polygon class="cls-2" points="952.12 882.124 1030.9 859.458 978.98 677.779 900.2 700.445 952.12 882.124"/></g></g></svg>