<?xml version="1.0" standalone="no"?>
<svg version="1.0" xmlns="http://www.w3.org/2000/svg" fill="#2d3032" id="logo"
 width="325.000000pt" height="325.000000pt" viewBox="0 0 325.000000 325.000000"
 preserveAspectRatio="xMidYMid meet">
<g transform="translate(0.000000,325.000000) scale(0.100000,-0.100000)"
 stroke="none">
<path d="M1370 3239 c-296 -59 -500 -144 -710 -298 -342 -249 -567 -615 -645
-1046 -19 -107 -20 -432 0 -540 27 -154 81 -332 100 -328 5 1 24 60 41 131 18
72 40 156 50 188 15 48 18 96 19 249 1 192 10 264 47 400 24 87 84 238 115
287 13 21 23 40 23 44 0 9 109 163 144 204 218 249 486 407 801 471 126 25
386 31 490 10 149 -29 288 -77 404 -139 236 -126 460 -353 596 -605 130 -240
180 -433 180 -692 0 -162 -8 -222 -47 -360 -32 -113 -39 -119 -54 -55 -8 30
-18 71 -24 90 -5 19 -20 73 -33 120 -14 47 -35 123 -47 170 -12 47 -33 121
-46 165 -13 44 -35 125 -50 180 -15 55 -33 123 -41 150 -8 28 -25 93 -39 145
-13 52 -27 103 -30 113 -5 16 -18 17 -126 15 l-120 -3 -67 -115 c-37 -63 -74
-126 -82 -140 -8 -14 -19 -32 -25 -40 -7 -8 -21 -31 -32 -50 -10 -19 -68 -116
-127 -215 -59 -99 -116 -193 -125 -210 -10 -16 -75 -124 -144 -240 -70 -115
-128 -219 -129 -230 -2 -19 4 -20 142 -20 l144 0 79 132 79 133 263 0 263 0
27 -103 c16 -56 43 -154 61 -217 18 -63 40 -145 49 -182 9 -36 25 -92 35 -125
10 -32 24 -79 31 -105 7 -27 17 -48 22 -48 28 0 180 216 252 360 75 150 121
288 151 455 17 95 20 446 5 527 -6 29 -15 78 -21 108 -28 146 -126 385 -216
524 -250 388 -643 647 -1108 731 -90 16 -449 19 -525 4z m1110 -1472 c16 -62
35 -136 43 -164 l14 -53 -153 0 c-85 0 -154 2 -154 5 0 6 32 63 64 114 15 22
26 43 26 45 0 3 19 36 43 73 23 37 49 81 57 96 18 37 24 26 60 -116z"/>
<path d="M686 2298 c-16 -56 -78 -280 -86 -308 -5 -19 -26 -91 -45 -160 -19
-69 -40 -141 -45 -160 -5 -19 -26 -91 -45 -160 -19 -69 -40 -141 -45 -160 -29
-104 -81 -289 -89 -315 -47 -159 -63 -215 -72 -242 -9 -30 -6 -39 34 -101 225
-348 618 -599 1058 -677 133 -23 450 -20 580 6 259 51 521 167 667 296 l33 29
-21 69 c-33 104 -41 125 -52 125 -5 0 -51 -28 -101 -63 -175 -120 -333 -188
-557 -239 -76 -17 -376 -17 -465 1 -311 60 -580 204 -803 429 -111 113 -108
103 -77 197 7 22 19 60 25 85 7 25 17 59 21 75 8 27 64 223 89 315 26 91 81
288 89 315 5 17 14 52 21 78 7 26 14 46 16 45 1 -2 15 -48 30 -103 48 -178 75
-278 100 -370 14 -49 29 -106 34 -125 4 -19 14 -57 22 -85 l13 -50 100 -3 c55
-1 105 1 111 5 11 8 134 226 134 238 0 4 8 19 18 33 17 24 42 70 132 237 15
28 45 82 66 120 l39 70 3 -252 c2 -200 5 -253 15 -253 8 0 36 37 64 83 27 45
83 135 123 201 l73 118 -7 302 c-4 165 -10 316 -13 334 l-5 32 -118 0 -118 0
-36 -67 c-20 -38 -50 -93 -67 -123 -17 -30 -47 -84 -67 -120 -19 -36 -44 -79
-53 -97 -10 -18 -35 -63 -55 -100 -20 -37 -40 -72 -44 -78 -4 -5 -31 -55 -60
-110 -62 -117 -73 -135 -80 -135 -3 0 -12 28 -21 63 -31 117 -109 408 -165
612 -14 50 -28 104 -32 120 l-8 30 -127 3 c-97 2 -128 0 -131 -10z"/>
</g>
</svg>
